<?xml version="1.0" encoding="UTF-8"?>
<svg id="Layer_1" data-name="Layer 1" xmlns="http://www.w3.org/2000/svg" viewBox="0 0 3000 756">
  <defs>
    <style>
      .cls-1 {
        fill: #252327;
      }

      .cls-2 {
        fill: #4d77c5;
      }
    </style>
  </defs>
  <g>
    <g>
      <path class="cls-1" d="m974.15,299.27v155.41h-38.29v-155.41h38.29Z"/>
      <path class="cls-1" d="m1035.96,388.21v66.47h-37.83v-116.56h35.97v21.4h1.32c2.63-7.13,7.12-12.73,13.46-16.81,6.34-4.07,13.9-6.11,22.67-6.11s15.61,1.84,21.78,5.5c6.16,3.67,10.96,8.78,14.39,15.33,3.43,6.55,5.12,14.2,5.07,22.95v74.29h-37.83v-67c.05-6.47-1.61-11.54-4.99-15.18-3.38-3.64-8.06-5.46-14.04-5.46-3.97,0-7.47.85-10.48,2.54-3.02,1.69-5.34,4.11-6.96,7.25-1.62,3.14-2.46,6.93-2.51,11.38Z"/>
      <path class="cls-1" d="m1247.22,338.12l-40.77,116.56h-43.32l-40.69-116.56h39.84l21.89,80.28h1.24l21.97-80.28h39.84Z"/>
      <path class="cls-1" d="m1313.36,456.88c-12.43,0-23.14-2.42-32.14-7.25-9-4.83-15.91-11.74-20.73-20.72-4.82-8.98-7.23-19.67-7.23-32.06s2.42-22.57,7.27-31.6c4.85-9.03,11.68-16.06,20.5-21.1,8.82-5.03,19.21-7.55,31.18-7.55,8.46,0,16.19,1.29,23.21,3.87,7.01,2.58,13.07,6.4,18.18,11.46,5.11,5.06,9.08,11.29,11.91,18.71,2.84,7.41,4.25,15.9,4.25,25.46v9.26h-103.27v-21.55h68.07c-.05-3.95-1.01-7.46-2.86-10.55-1.86-3.09-4.4-5.5-7.62-7.25-3.22-1.75-6.92-2.62-11.1-2.62s-8.02.92-11.37,2.77c-3.35,1.85-6.01,4.35-7.97,7.51-1.96,3.16-2.99,6.74-3.09,10.74v21.93c0,4.75.95,8.92,2.86,12.48,1.91,3.57,4.61,6.34,8.12,8.31,3.51,1.97,7.68,2.96,12.53,2.96,3.35,0,6.39-.46,9.13-1.37,2.73-.91,5.08-2.25,7.04-4.02,1.96-1.77,3.43-3.95,4.41-6.53l34.73.99c-1.44,7.64-4.6,14.28-9.48,19.92-4.87,5.64-11.26,10.02-19.15,13.13-7.89,3.11-17.02,4.67-27.38,4.67Z"/>
      <path class="cls-1" d="m1389.17,454.68v-116.56h36.75v21.25h1.24c2.17-7.69,5.7-13.42,10.6-17.19,4.9-3.77,10.6-5.66,17.1-5.66,1.75,0,3.56.11,5.42.34,1.86.23,3.58.57,5.18,1.02v32.25c-1.81-.61-4.17-1.09-7.08-1.44-2.91-.35-5.51-.53-7.77-.53-4.49,0-8.52.97-12.11,2.92-3.59,1.95-6.4,4.66-8.43,8.12-2.04,3.47-3.06,7.53-3.06,12.18v63.29h-37.83Z"/>
      <path class="cls-1" d="m1584.66,373.71l-34.73.91c-.36-2.43-1.34-4.59-2.94-6.49-1.6-1.9-3.67-3.39-6.23-4.48-2.55-1.09-5.51-1.63-8.86-1.63-4.38,0-8.11.86-11.18,2.58-3.07,1.72-4.58,4.05-4.53,6.98-.05,2.28.89,4.25,2.82,5.92,1.93,1.67,5.4,3.01,10.4,4.02l22.9,4.25c11.86,2.23,20.69,5.92,26.5,11.08,5.8,5.16,8.73,11.99,8.78,20.49-.05,7.99-2.46,14.95-7.23,20.87-4.77,5.92-11.28,10.51-19.53,13.77-8.25,3.26-17.69,4.89-28.31,4.89-16.97,0-30.34-3.43-40.11-10.28-9.77-6.86-15.36-16.05-16.75-27.58l37.36-.91c.82,4.25,2.97,7.49,6.42,9.71,3.45,2.23,7.86,3.34,13.23,3.34,4.85,0,8.79-.89,11.84-2.66,3.04-1.77,4.59-4.12,4.64-7.06-.05-2.63-1.24-4.74-3.56-6.34-2.32-1.59-5.96-2.85-10.91-3.76l-20.73-3.87c-11.91-2.12-20.78-6.06-26.61-11.8-5.83-5.74-8.72-13.06-8.66-21.97-.05-7.79,2.06-14.46,6.34-20,4.28-5.54,10.37-9.77,18.26-12.71s17.2-4.4,27.93-4.4c16.09,0,28.78,3.3,38.06,9.9,9.28,6.6,14.41,15.67,15.39,27.2Z"/>
      <path class="cls-1" d="m1661.7,456.88c-12.43,0-23.14-2.42-32.14-7.25-9-4.83-15.91-11.74-20.73-20.72-4.82-8.98-7.23-19.67-7.23-32.06s2.42-22.57,7.27-31.6c4.85-9.03,11.68-16.06,20.5-21.1,8.82-5.03,19.21-7.55,31.18-7.55,8.46,0,16.19,1.29,23.21,3.87,7.01,2.58,13.07,6.4,18.18,11.46,5.11,5.06,9.08,11.29,11.91,18.71,2.84,7.41,4.25,15.9,4.25,25.46v9.26h-103.27v-21.55h68.07c-.05-3.95-1.01-7.46-2.86-10.55-1.86-3.09-4.4-5.5-7.62-7.25-3.22-1.75-6.92-2.62-11.1-2.62s-8.02.92-11.37,2.77c-3.35,1.85-6.01,4.35-7.97,7.51-1.96,3.16-2.99,6.74-3.09,10.74v21.93c0,4.75.95,8.92,2.86,12.48,1.91,3.57,4.61,6.34,8.12,8.31,3.51,1.97,7.68,2.96,12.53,2.96,3.35,0,6.39-.46,9.13-1.37,2.73-.91,5.08-2.25,7.04-4.02,1.96-1.77,3.43-3.95,4.41-6.53l34.73.99c-1.44,7.64-4.6,14.28-9.48,19.92-4.87,5.64-11.26,10.02-19.15,13.13-7.89,3.11-17.02,4.67-27.38,4.67Z"/>
    </g>
    <g>
      <path class="cls-1" d="m1812.81,454.68v-155.41h91.67v12.75h-77.2v58.51h70.01v12.75h-70.01v71.4h-14.47Z"/>
      <path class="cls-1" d="m1944.86,318.09c-2.84,0-5.26-.95-7.27-2.85-2.01-1.9-3.02-4.18-3.02-6.87s1.01-4.97,3.02-6.87c2.01-1.9,4.43-2.85,7.27-2.85s5.26.95,7.27,2.85c2.01,1.9,3.02,4.19,3.02,6.87s-1.01,4.97-3.02,6.87-4.44,2.85-7.27,2.85Zm-7.04,136.59v-116.56h13.85v116.56h-13.85Z"/>
      <path class="cls-1" d="m2001.95,381.83v72.85h-13.77v-116.56h13.38v18.29h1.24c2.78-5.97,7.13-10.76,13.03-14.38,5.9-3.62,13.22-5.43,21.93-5.43,7.99,0,15.02,1.63,21.08,4.9,6.06,3.26,10.78,8.06,14.16,14.38,3.38,6.33,5.07,14.09,5.07,23.3v75.5h-13.77v-74.67c0-9.56-2.72-17.12-8.16-22.69-5.44-5.56-12.73-8.35-21.85-8.35-6.24,0-11.79,1.32-16.63,3.95-4.85,2.63-8.68,6.41-11.49,11.35-2.81,4.93-4.22,10.79-4.22,17.57Z"/>
      <path class="cls-1" d="m2147.62,457.33c-7.17,0-13.72-1.38-19.65-4.14-5.93-2.76-10.65-6.75-14.16-11.99-3.51-5.24-5.26-11.6-5.26-19.08,0-5.77,1.11-10.62,3.33-14.57,2.22-3.95,5.36-7.18,9.44-9.71,4.07-2.53,8.9-4.53,14.47-5.99,5.57-1.47,11.71-2.6,18.41-3.41,6.65-.81,12.29-1.52,16.9-2.12,4.61-.61,8.13-1.57,10.56-2.88,2.42-1.32,3.64-3.44,3.64-6.38v-2.73c0-7.94-2.41-14.2-7.23-18.78-4.82-4.58-11.75-6.87-20.77-6.87s-15.54,1.85-20.93,5.54c-5.39,3.7-9.17,8.05-11.33,13.05l-13.07-4.63c2.68-6.38,6.39-11.47,11.14-15.29,4.74-3.82,10.06-6.58,15.94-8.27,5.88-1.69,11.84-2.54,17.87-2.54,4.54,0,9.27.58,14.2,1.75,4.92,1.17,9.5,3.18,13.73,6.03,4.23,2.86,7.66,6.83,10.29,11.91,2.63,5.09,3.95,11.52,3.95,19.31v79.15h-13.77v-18.44h-.85c-1.65,3.44-4.1,6.78-7.35,10.02-3.25,3.24-7.32,5.89-12.22,7.97-4.9,2.07-10.65,3.11-17.25,3.11Zm1.86-12.37c7.32,0,13.67-1.6,19.03-4.78,5.36-3.19,9.5-7.42,12.42-12.71,2.91-5.29,4.37-11.12,4.37-17.49v-16.85c-1.03.96-2.75,1.82-5.14,2.58-2.4.76-5.16,1.43-8.28,2.01-3.12.58-6.23,1.08-9.32,1.48-3.09.41-5.88.76-8.35,1.06-6.7.81-12.43,2.08-17.17,3.8-4.75,1.72-8.38,4.08-10.91,7.09-2.53,3.01-3.79,6.87-3.79,11.57,0,7.08,2.58,12.56,7.74,16.43,5.16,3.87,11.63,5.81,19.42,5.81Z"/>
      <path class="cls-1" d="m2249.42,381.83v72.85h-13.77v-116.56h13.38v18.29h1.24c2.78-5.97,7.13-10.76,13.03-14.38,5.9-3.62,13.22-5.43,21.93-5.43,7.99,0,15.02,1.63,21.08,4.9,6.06,3.26,10.78,8.06,14.16,14.38,3.38,6.33,5.07,14.09,5.07,23.3v75.5h-13.77v-74.67c0-9.56-2.72-17.12-8.16-22.69-5.44-5.56-12.73-8.35-21.85-8.35-6.24,0-11.79,1.32-16.63,3.95-4.85,2.63-8.68,6.41-11.49,11.35-2.81,4.93-4.22,10.79-4.22,17.57Z"/>
      <path class="cls-1" d="m2408.31,457.11c-10.62,0-19.87-2.6-27.73-7.81-7.87-5.21-13.96-12.34-18.3-21.4-4.33-9.06-6.5-19.38-6.5-30.96s2.2-22.08,6.61-31.19c4.41-9.11,10.53-16.25,18.37-21.44,7.84-5.18,16.94-7.78,27.31-7.78,7.94,0,15.14,1.51,21.58,4.52,6.45,3.01,11.77,7.23,15.97,12.67,4.2,5.44,6.85,11.78,7.93,19.01h-13.92c-1.44-6.58-4.91-12.2-10.4-16.88-5.49-4.68-12.47-7.02-20.93-7.02-7.58,0-14.29,2.01-20.11,6.03-5.83,4.02-10.38,9.61-13.65,16.77-3.28,7.16-4.91,15.44-4.91,24.85s1.6,17.82,4.8,25.08c3.2,7.26,7.7,12.94,13.5,17.04,5.8,4.1,12.6,6.15,20.38,6.15,5.26,0,10.07-.97,14.43-2.92,4.36-1.94,8.02-4.72,10.98-8.31,2.97-3.59,4.96-7.87,6-12.83h13.92c-1.03,7.03-3.57,13.29-7.62,18.78-4.05,5.49-9.28,9.8-15.7,12.94-6.42,3.14-13.76,4.7-22.01,4.7Z"/>
      <path class="cls-1" d="m2531.16,457.11c-11.09,0-20.68-2.54-28.78-7.63-8.1-5.08-14.35-12.14-18.76-21.17-4.41-9.03-6.61-19.44-6.61-31.23s2.2-22.17,6.61-31.3c4.41-9.13,10.52-16.29,18.33-21.47,7.81-5.18,16.85-7.78,27.11-7.78,6.45,0,12.66,1.15,18.64,3.45,5.98,2.3,11.36,5.82,16.13,10.55,4.77,4.73,8.55,10.68,11.33,17.83,2.78,7.16,4.18,15.62,4.18,25.38v6.68h-92.83v-11.91h78.75c0-7.49-1.54-14.23-4.6-20.22-3.07-5.99-7.32-10.74-12.76-14.23-5.44-3.49-11.72-5.24-18.84-5.24-7.53,0-14.16,1.97-19.88,5.92-5.72,3.95-10.2,9.16-13.42,15.63-3.22,6.48-4.86,13.56-4.91,21.25v7.13c0,9.26,1.64,17.34,4.91,24.25,3.27,6.9,7.93,12.25,13.96,16.05,6.03,3.79,13.18,5.69,21.43,5.69,5.62,0,10.56-.86,14.81-2.58,4.25-1.72,7.84-4.03,10.75-6.94,2.91-2.91,5.12-6.11,6.61-9.6l13.07,4.17c-1.81,4.91-4.76,9.44-8.86,13.58-4.1,4.15-9.21,7.48-15.32,9.98-6.11,2.5-13.14,3.76-21.08,3.76Z"/>
    </g>
  </g>
  <g>
    <path class="cls-2" d="m735.11,207.32v241.36c16.21-13.79,25.86-35.17,25.86-58.27h0v-157.23h52.75v161.37h0c-2.07,70.34-59.65,127.23-130.68,127.23V208.01h-25.86c-85.85,0-155.16,68.27-157.23,153.09h0v187.57h104.82v-241.36c-16.21,13.79-25.86,35.17-25.86,58.27h0v157.23h-52.75v-161.37c2.07-70.34,59.65-127.23,130.68-127.23h0v314.8h25.86c85.85,0,155.16-68.27,157.23-153.09v-161.37h0v-26.55h-104.82v-.69Z"/>
    <path class="cls-2" d="m420.65,265.25h0v282.39h25.86V206.98c-16.21,14.14-25.86,35.17-25.86,58.27Z"/>
  </g>
</svg>